Coordinates
version=1
nRows=8
nColumns=40
inDegrees=yes

Units are S.I. units (second, meters, Newtons, ...)
Angles are in degrees.

endheader
time	pelvis_tilt	pelvis_list	pelvis_rotation	pelvis_tx	pelvis_ty	pelvis_tz	hip_flexion_r	hip_adduction_r	hip_rotation_r	knee_angle_r	knee_angle_r_beta	ankle_angle_r	subtalar_angle_r	mtp_angle_r	hip_flexion_l	hip_adduction_l	hip_rotation_l	knee_angle_l	knee_angle_l_beta	ankle_angle_l	subtalar_angle_l	mtp_angle_l	lumbar_extension	lumbar_bending	lumbar_rotation	arm_flex_r	arm_add_r	arm_rot_r	elbow_flex_r	pro_sup_r	wrist_flex_r	wrist_dev_r	arm_flex_l	arm_add_l	arm_rot_l	elbow_flex_l	pro_sup_l	wrist_flex_l	wrist_dev_l
     17.41250000	     -2.62537748	     -5.82728624	      3.20434893	      0.78197931	      0.93155945	      0.48995745	      9.43843163	      4.34583176	    -17.43107284	     14.06831795	     14.06831795	      9.02863868	     -3.08974245	     -6.56682565	     32.37330604	     -9.69334276	      3.09115766	     51.08438039	     51.08438039	     11.04795744	    -18.48438651	     14.52548567	     -9.02601794	      6.28918225	      2.44326120	     26.20832124	    -16.71669895	     -5.39587400	     71.86299621	     44.93779564	      0.00000000	      0.00000000	     -3.75264062	     -6.68585536	     -1.13738357	     23.86597170	     45.54849790	      0.00000000	      0.00000000
     17.42557143	     -2.69314053	     -5.75304649	      3.56916953	      0.78067521	      0.93163581	      0.49000412	      8.98639993	      4.34841678	    -17.55819712	     13.77335792	     13.77335792	      9.23898560	     -3.28334614	     -6.75170231	     32.46775682	     -9.27299974	      3.19215890	     47.14652082	     47.14652082	     10.48829452	    -18.16696968	     12.40827708	     -9.19109580	      6.23487389	      2.95780752	     26.52659994	    -17.80736929	     -4.87145338	     77.35676148	     44.77118868	      0.00000000	      0.00000000	     -4.63690354	     -6.59393670	     -0.27913871	     24.22639941	     45.37512904	      0.00000000	      0.00000000
     17.43864286	     -2.85139746	     -5.60372349	      3.89141404	      0.77944730	      0.93158245	      0.48982358	      8.61620817	      4.24759298	    -17.60413894	     13.47377039	     13.47377039	      9.46078495	     -3.40212598	     -6.85043243	     32.51508596	     -8.67912280	      3.42376870	     43.13609723	     43.13609723	     10.46873851	    -17.58470289	     11.71932814	     -9.07165489	      6.06379799	      2.73956488	     28.23190073	    -17.69255405	     -5.15471509	     79.65875277	     44.73048320	      0.00000000	      0.00000000	     -5.67822183	     -6.56338567	      0.21977159	     23.92094103	     45.27107245	      0.00000000	      0.00000000
     17.45171429	     -2.96208375	     -5.46343946	      4.22613937	      0.77827534	      0.93151079	      0.48949649	      8.20731373	      4.14934699	    -17.68709521	     13.21045896	     13.21045896	      9.67092244	     -3.58136248	     -7.16394045	     32.30628202	     -8.12136922	      3.65597416	     38.88442756	     38.88442756	      9.78030547	    -16.78766068	      9.14023899	     -9.07002713	      5.89975849	      3.07350032	     29.33463993	    -18.16542002	     -5.48224404	     82.57802457	     44.71607446	      0.00000000	      0.00000000	     -6.53858226	     -6.64622841	      1.62864765	     24.22965611	     45.03029196	      0.00000000	      0.00000000
     17.46478571	     -3.26458201	     -5.61205895	      4.61695161	      0.77698555	      0.93090476	      0.48902750	      8.13277168	      4.29857003	    -17.92216130	     13.14019375	     13.14019375	      9.93220174	     -3.77186520	     -7.26833614	     32.55528858	     -7.75557966	      4.26671640	     35.22894842	     35.22894842	     10.28530558	    -15.34620756	      9.36967849	     -8.67940303	      6.08496857	      3.26627737	     30.99386154	    -18.55483301	     -5.71604098	     83.47857219	     44.70351809	      0.00000000	      0.00000000	     -7.19778272	     -6.49233207	      1.67542671	     24.02452502	     45.01156806	      0.00000000	      0.00000000
     17.47785714	     -3.26431766	     -5.13173542	      4.90413092	      0.77609470	      0.93119673	      0.48833245	      7.48432558	      3.84789214	    -17.89544754	     12.75796581	     12.75796581	     10.22840943	     -3.81167381	     -7.31828023	     31.98003167	     -6.95995442	      4.19019547	     31.24460746	     31.24460746	     10.67047589	    -13.42295465	      9.49594735	     -8.84364880	      5.51189157	      2.86622136	     32.64345211	    -18.11674609	     -5.54918049	     85.70082739	     44.63821619	      0.00000000	      0.00000000	     -8.02663665	     -6.42832444	      1.78229681	     23.82247671	     44.98089292	      0.00000000	      0.00000000
     17.49092857	     -3.47119868	     -5.14694248	      5.27339095	      0.77506565	      0.93077560	      0.48753911	      7.17763541	      3.87101976	    -18.16458813	     12.49813084	     12.49813084	     10.44768114	     -3.87265995	     -7.40172787	     31.89447757	     -6.58028482	      4.46872691	     27.84594495	     27.84594495	     11.11767994	    -11.63045718	      9.58540323	     -8.69049061	      5.61839648	      2.71522403	     34.23585903	    -18.17305906	     -5.52743715	     87.49715758	     44.59078005	      0.00000000	      0.00000000	     -8.67200814	     -6.30726527	      1.83953115	     23.78298392	     44.96072551	      0.00000000	      0.00000000
     17.50400000	     -3.43516037	     -5.10936115	      5.64100445	      0.77438265	      0.93064986	      0.48674381	      6.46384181	      3.89220869	    -18.44090060	     12.02291108	     12.02291108	     10.68740189	     -3.57510036	     -7.64887451	     31.58867756	     -6.29907473	      4.38584761	     24.93936001	     24.93936001	     11.31224320	     -9.50177091	      9.05241703	     -8.90282761	      5.60793170	      2.84653585	     34.99891532	    -18.54655449	     -5.08243150	     91.46860688	     44.48548158	      0.00000000	      0.00000000	     -9.51534466	     -6.37007112	      2.03906634	     24.67394315	     44.92345523	      0.00000000	      0.00000000
